<?xml version="1.0" encoding="UTF-8" standalone="no"?>
<svg
   viewBox="0 0 113.52906 27.81898"
   version="1.1"
   id="svg22"
   width="113.52905"
   height="27.818979"
   xmlns="http://www.w3.org/2000/svg"
   xmlns:svg="http://www.w3.org/2000/svg">
  <defs
     id="defs2">
    <style
       id="style1">.cls-1{fill:url(#linear-gradient);}.cls-2{fill:none;}.cls-3{fill:#fa0f0c;}.cls-4{fill:#fff;}</style>
    <linearGradient
       id="linear-gradient"
       x1="9.8000002"
       y1="46.09"
       x2="260.37"
       y2="46.09"
       gradientUnits="userSpaceOnUse"
       gradientTransform="matrix(0.41406831,0,0,0.3003827,-1.3047104,1.445174)">
      <stop
         offset="0"
         stop-color="#9c9c9c"
         id="stop1" />
      <stop
         offset="1"
         id="stop2" />
    </linearGradient>
  </defs>
  <g
     id="Layer_2"
     data-name="Layer 2">
    <g
       id="Layer_1-2"
       data-name="Layer 1">
      <path
         id="path2"
         style="fill:url(#linear-gradient);stroke-width:0.352673"
         class="cls-1"
         d="M 9.4650876,3.9823288 C 8.38023,4.0033561 7.9496261,4.9230625 7.3947751,7.0077194 7.0469571,8.3203912 6.8857936,9.1917966 6.6994626,10.201079 6.5338356,11.090211 6.3816554,12.075538 5.9924314,13.640532 5.6032074,15.205525 5.213531,16.531463 4.861572,17.468657 4.662819,17.991324 4.3685343,18.59015 3.6936033,18.890532 a 1.8011972,1.3066648 0 0 1 -0.9355469,0.191406 l 0.033203,1.199219 A 3.4036415,2.4691457 0 0 0 4.5627439,19.913969 C 5.734558,19.391302 6.1900841,18.49802 6.4592283,17.78311 6.8236083,16.812875 7.271099,15.41661 7.627197,13.84561 7.983296,12.274604 8.1744606,11.264337 8.3400876,10.363188 8.5305586,9.3388883 8.6841444,8.5158653 9.0236814,7.2362351 9.2307154,6.458244 9.3950856,5.9542773 9.5275876,5.6268601 A 12.60838,9.1466537 0 0 1 9.9670407,7.171782 c 0.5382893,2.1026795 0.9060563,4.997607 0.9101563,5.015625 0.0041,0.01802 0.315924,1.968513 1.048828,7.675781 0.111796,1.063355 0.194607,1.839891 0.414063,2.90625 0.612821,2.955766 1.099909,3.822264 2.164063,3.822266 1.08486,0 1.470018,-0.977553 2.207031,-3.548829 0.467898,-1.65511 0.741175,-2.699829 0.828125,-3.189453 0.132498,-0.444567 0.191032,-0.675684 0.232422,-0.83789 a 9.1881757,6.6654923 0 0 1 0.318359,-0.884766 c 0.15321,-0.402515 0.283204,-0.683656 0.386719,-0.878906 a 15.82569,11.480626 0 0 1 0.603515,1.134765 c 0.356094,0.862098 0.654297,1.554688 0.654297,1.554688 0.0083,0.03605 0.09188,0.25001 0.539063,1.199219 l 0.05664,0.09375 c 0.68321,0.901147 1.400309,1.113281 1.884766,1.113281 0.703917,0.01202 1.473972,-0.437323 2.140625,-1.275391 a 8.281366,6.0076539 0 0 0 0.414063,-0.601562 c 0.08281,-0.132168 0.166246,-0.262215 0.265625,-0.400391 a 12.061809,8.7501485 0 0 1 0.695312,-0.728515 3.5195806,2.5532529 0 0 1 0.292969,-0.265625 2.1738586,1.5770092 0 0 1 0.59375,0.351562 10.765776,7.8099499 0 0 1 0.765625,0.707031 4.1820899,3.0338652 0 0 0 0.894531,0.660157 2.8570713,2.0726406 0 0 0 1.242188,0.388672 3.0019952,2.1777746 0 0 0 1.849609,-0.363282 7.287602,5.2867354 0 0 0 0.998047,-0.601562 1.9875279,1.4418369 0 0 1 0.46875,-0.25586 1.5983036,1.1594772 0 0 1 0.783203,-0.109375 1.8840108,1.3667412 0 0 1 0.699219,0.123047 2.2773757,1.6521049 0 0 1 0.314453,0.128906 c 0.120084,0.05708 0.240073,0.111949 0.380859,0.166016 a 5.0971808,3.697711 0 0 0 0.994141,0.298828 4.3145917,3.1299877 0 0 0 0.294922,0.05469 c 0.01404,-0.333559 0.02822,-0.738161 0.03516,-1.230469 A 3.3912194,2.4601343 0 0 1 35.76001,19.218657 l -0.261719,-0.113282 a 3.8425539,2.7875514 0 0 0 -0.539062,-0.220703 3.5361433,2.5652682 0 0 0 -1.308594,-0.224609 3.2255921,2.3399812 0 0 0 -1.580078,0.238281 3.3746567,2.4481189 0 0 0 -0.828125,0.441407 6.3393858,4.5988591 0 0 1 -0.757813,0.455078 1.6562732,1.2015307 0 0 1 -0.771484,0.197265 1.3540033,0.98225144 0 0 1 -0.496094,-0.171875 2.5589421,1.8563651 0 0 1 -0.509765,-0.384765 12.422049,9.0114811 0 0 0 -0.894532,-0.828125 c -0.695632,-0.546692 -1.383507,-0.802264 -1.992187,-0.742188 a 2.2152654,1.6070474 0 0 0 -1.431641,0.757813 12.918931,9.3719394 0 0 0 -0.828125,0.876953 c -0.120078,0.174222 -0.215073,0.320363 -0.314453,0.476562 a 7.0888492,5.1425517 0 0 1 -0.328125,0.484375 3.0226986,2.1927936 0 0 1 -0.6875,0.634766 2.2359689,1.6220666 0 0 1 -0.414062,-0.408203 c -0.405781,-0.859093 -0.492188,-1.082031 -0.492188,-1.082032 0,0 -0.297499,-0.682836 -0.666015,-1.583984 -0.712203,-1.531952 -1.342256,-2.362219 -2.265626,-2.326172 -0.92337,0.03605 -1.379134,0.769817 -1.892578,2.103516 a 9.7347457,7.0619974 0 0 0 -0.355468,1.007812 c -0.04141,0.159204 -0.09578,0.38265 -0.232422,0.824219 v 0.05273 c -0.08281,0.438558 -0.360228,1.490912 -0.828125,3.125 -0.229118,0.795013 -0.426169,1.418473 -0.591797,1.873046 -0.149064,-0.43554 -0.322027,-1.059674 -0.533203,-2.083979 C 13.748055,21.573258 13.667984,20.82273 13.568604,19.771391 12.831563,14.028068 12.517822,12.068266 12.517822,12.068266 12.505412,11.948069 12.140565,9.112945 11.593994,6.9862351 11.208706,4.908102 10.549947,3.9823288 9.4650876,3.9823288 Z M 68.82251,19.160063 c 0.0014,0.0027 0.0026,0.0051 0.0039,0.0078 0.0088,-0.0035 0.01636,-0.0058 0.02148,-0.0078 -0.0082,2e-6 -0.01717,3.7e-5 -0.02539,0 z" />
      <rect
         class="cls-2"
         width="113.52905"
         height="27.818979"
         id="rect2"
         x="0"
         y="0"
         style="stroke-width:0.421487" />
      <path
         class="cls-3"
         d="m 49.39092,22.119616 v 3.356542 H 35.471903 V 3.8933796 H 49.017336 V 7.2569294 H 38.918517 v 5.6059166 h 8.95999 v 3.300483 h -8.95999 v 5.949279 z"
         id="path3"
         style="stroke-width:0.649796" />
      <path
         class="cls-3"
         d="m 56.669783,24.354975 a 9.0925526,10.57416 0 0 1 -3.555074,-3.966186 9.4420344,10.980588 0 0 1 -1.283441,-5.70402 9.4239578,10.959566 0 0 1 1.295492,-5.7040198 9.1889614,10.686278 0 0 1 3.567125,-3.9591786 10.49048,12.199876 0 0 1 5.079538,-1.4365164 10.617016,12.347031 0 0 1 4.163653,0.9249762 8.5321766,9.922472 0 0 1 3.18149,2.6698179 l -2.229453,2.4385736 a 6.4834902,7.5399575 0 0 0 -4.959026,-2.52967 6.899253,8.0234679 0 0 0 -3.416487,0.9740277 5.9532419,6.9233067 0 0 0 -2.331887,2.7118634 6.6281034,7.708135 0 0 0 -0.849601,3.910126 6.6281034,7.708135 0 0 0 0.849601,3.917135 5.9532419,6.9233067 0 0 0 2.362015,2.697846 6.899253,8.0234679 0 0 0 3.416486,0.974029 6.4654135,7.5189354 0 0 0 4.959027,-2.5577 l 2.229453,2.466604 a 8.4839722,9.8664128 0 0 1 -3.199566,2.676824 10.659196,12.396083 0 0 1 -4.175705,0.924976 10.466378,12.171846 0 0 1 -5.10364,-1.429508 z"
         id="path4"
         style="stroke-width:0.649796" />
      <path
         class="cls-3"
         d="M 88.918519,3.8933796 V 25.476158 h -3.446616 v -9.249762 h -9.592672 v 9.249762 H 72.450694 V 3.8933796 h 3.446614 v 8.8923854 h 9.592671 V 3.8933796 Z"
         id="path5"
         style="stroke-width:0.649796" />
      <path
         class="cls-3"
         d="m 97.456721,24.354975 a 9.1829358,10.679271 0 0 1 -3.579172,-3.980201 9.3697279,10.8965 0 0 1 -1.295499,-5.690005 9.3637023,10.889493 0 0 1 1.295499,-5.6829979 9.140757,10.630219 0 0 1 3.579172,-3.9802005 11.225597,13.054777 0 0 1 10.243429,0 9.1829358,10.679271 0 0 1 3.57917,3.9591786 9.4239578,10.959566 0 0 1 1.29549,5.7040198 9.39383,10.924529 0 0 1 -1.29549,5.70402 9.1949869,10.693285 0 0 1 -3.57917,3.966186 11.273801,13.110836 0 0 1 -10.243429,0 z m 8.435769,-3.055225 a 6.0255485,7.0073955 0 0 0 2.33188,-2.711862 6.6823333,7.7712016 0 0 0 0.84961,-3.903119 6.6763077,7.7641942 0 0 0 -0.84961,-3.896112 6.0255485,7.0073955 0 0 0 -2.33188,-2.7118621 7.086045,8.2406971 0 0 0 -6.68233,0 6.0255485,7.0073955 0 0 0 -2.331889,2.7118621 6.6763077,7.7641942 0 0 0 -0.849605,3.896112 6.6823333,7.7712016 0 0 0 0.849605,3.903119 6.0255485,7.0073955 0 0 0 2.331889,2.711862 7.086045,8.2406971 0 0 0 6.68233,0 z"
         id="path6"
         style="stroke-width:0.649796" />
    </g>
  </g>
</svg>
