<svg xmlns="http://www.w3.org/2000/svg" xmlns:xlink="http://www.w3.org/1999/xlink" width="220" height="103" viewBox="0 0 194.4 91.45"><defs><style>.cls-1{fill:url(#linear-gradient);}.cls-2{fill:none;}.cls-3{fill:#fa0f0c;}</style><linearGradient id="linear-gradient" x1="9.8" y1="46.09" x2="260.37" y2="46.09" gradientUnits="userSpaceOnUse"><stop offset="0" stop-color="#9f9f9f"/><stop offset="1" stop-color="#fff"/></linearGradient></defs><g id="Layer_2" data-name="Layer 2"><g id="Layer_2-2" data-name="Layer 2"><path class="cls-1" d="M38.18,83.72h0c-2.57,0-3.75-2.89-5.23-12.73-.53-3.55-.73-6.14-1-9.68-1.77-19-2.52-25.49-2.53-25.55s-.9-9.7-2.2-16.7a30.45,30.45,0,0,0-1.06-5.14c-.32,1.09-.72,2.77-1.22,5.36-.82,4.26-1.19,7-1.65,10.41-.4,3-.86,6.36-1.72,11.59s-1.94,9.88-2.82,13.11c-.65,2.38-1.75,5.35-4.58,7.09a8.22,8.22,0,0,1-4.28,1.23l-.08-4a4.35,4.35,0,0,0,2.26-.63c1.63-1,2.34-3,2.82-4.74.85-3.12,1.79-7.53,2.73-12.74s1.31-8.49,1.71-11.45c.45-3.36.84-6.26,1.68-10.63,1.34-6.94,2.38-10,5-10.07h0c2.62,0,4.21,3.08,5.14,10,1.32,7.08,2.2,16.51,2.23,16.91,0,0,.76,6.53,2.54,25.65.24,3.5.43,6,.94,9.41s.93,5.49,1.29,6.94q.6-2.27,1.43-6.24c1.13-5.44,1.8-8.94,2-10.4l0-.18c.33-1.47.46-2.21.56-2.74A23.51,23.51,0,0,1,43,54.44c1.24-4.44,2.34-6.88,4.57-7s3.75,2.64,5.47,7.74c.89,3,1.61,5.28,1.61,5.28s.21.74,1.19,3.6a5.4,5.4,0,0,0,1,1.36,7.3,7.3,0,0,0,1.66-2.12,17.12,17.12,0,0,0,.79-1.61c.24-.52.47-1,.76-1.58a31.2,31.2,0,0,1,2-2.92,5.35,5.35,0,0,1,3.46-2.53c1.47-.2,3.13.66,4.81,2.48a30,30,0,0,1,2.16,2.75,6.18,6.18,0,0,0,1.23,1.28,3.27,3.27,0,0,0,1.2.57,4,4,0,0,0,1.86-.65,15.31,15.31,0,0,0,1.83-1.52,8.15,8.15,0,0,1,2-1.47,7.79,7.79,0,0,1,3.82-.79,8.54,8.54,0,0,1,3.16.75,9.28,9.28,0,0,1,1.3.73l.63.38a8.19,8.19,0,0,0,1.62.65,6.44,6.44,0,0,0,1.62.27,6.73,6.73,0,0,0,2-.28,15.55,15.55,0,0,0,1.58-.54l.22-.09a15.79,15.79,0,0,1,4.95-.94,17.5,17.5,0,0,1,5.42.71l.65.15a19.29,19.29,0,0,0,6,.14c1-.08,2-.15,3.12-.19,1.3,0,3.12,0,5,0,1.1,0,2.24.06,3.29.07,2.61,0,6.08,0,10.32,0,4.46,0,9.46-.07,13.31-.12,8.89-.11,21-.08,36,.12l0,4c-15-.2-27-.24-35.89-.12-3.86,0-8.87.09-13.33.12-4.27,0-7.76,0-10.39,0-1.07,0-2.22,0-3.35-.07-1.86,0-3.62-.09-4.82,0-1,0-2,.11-2.94.18a22.62,22.62,0,0,1-7.2-.24l-.68-.16a14.48,14.48,0,0,0-4.26-.6,12.15,12.15,0,0,0-3.72.69l-.21.08a20,20,0,0,1-2,.68,11.24,11.24,0,0,1-3.11.41,10.42,10.42,0,0,1-2.6-.42,12.31,12.31,0,0,1-2.4-1c-.34-.18-.63-.36-.92-.55a5.5,5.5,0,0,0-.76-.43,4.55,4.55,0,0,0-1.69-.41,3.86,3.86,0,0,0-1.89.37,4.8,4.8,0,0,0-1.13.85,17.6,17.6,0,0,1-2.41,2,7.25,7.25,0,0,1-4.47,1.21,6.9,6.9,0,0,1-3-1.29,10.1,10.1,0,0,1-2.16-2.2,26,26,0,0,0-1.85-2.36A5.25,5.25,0,0,0,66,58.7a8.5,8.5,0,0,0-.71.88A29.13,29.13,0,0,0,63.61,62c-.24.46-.44.9-.64,1.34a20,20,0,0,1-1,2c-1.61,2.79-3.47,4.29-5.17,4.25-1.17,0-2.9-.71-4.55-3.71l-.14-.31c-1.08-3.16-1.28-3.88-1.3-4h0s-.72-2.3-1.58-5.17a38.22,38.22,0,0,0-1.46-3.78c-.25.65-.56,1.59-.93,2.93a22.19,22.19,0,0,0-.77,2.95c-.1.54-.24,1.3-.56,2.78-.21,1.63-.87,5.11-2,10.62C41.73,80.46,40.8,83.72,38.18,83.72Z"/><rect class="cls-2" width="194.4" height="91.45"/><path class="cls-3" d="M79.73,41.32v4.79H56.63V15.31H79.11v4.8H62.35v8H77.22v4.71H62.35v8.49Z"/><path class="cls-3" d="M91.81,44.51a15.09,15.09,0,0,1-5.9-5.66,15.67,15.67,0,0,1-2.13-8.14,15.64,15.64,0,0,1,2.15-8.14,15.25,15.25,0,0,1,5.92-5.65,17.41,17.41,0,0,1,8.43-2.05,17.62,17.62,0,0,1,6.91,1.32A14.16,14.16,0,0,1,112.47,20l-3.7,3.48a10.76,10.76,0,0,0-8.23-3.61,11.45,11.45,0,0,0-5.67,1.39A9.88,9.88,0,0,0,91,25.13a11,11,0,0,0-1.41,5.58A11,11,0,0,0,91,36.3a9.88,9.88,0,0,0,3.92,3.85,11.45,11.45,0,0,0,5.67,1.39,10.73,10.73,0,0,0,8.23-3.65l3.7,3.52a14.08,14.08,0,0,1-5.31,3.82,17.69,17.69,0,0,1-6.93,1.32A17.37,17.37,0,0,1,91.81,44.51Z"/><path class="cls-3" d="M145.33,15.31v30.8h-5.72V32.91H123.69v13.2H118V15.31h5.72V28h15.92V15.31Z"/><path class="cls-3" d="M159.5,44.51a15.24,15.24,0,0,1-5.94-5.68,15.55,15.55,0,0,1-2.15-8.12,15.54,15.54,0,0,1,2.15-8.11,15.17,15.17,0,0,1,5.94-5.68,18.63,18.63,0,0,1,17,0,15.24,15.24,0,0,1,5.94,5.65,15.64,15.64,0,0,1,2.15,8.14,15.59,15.59,0,0,1-2.15,8.14,15.26,15.26,0,0,1-5.94,5.66,18.71,18.71,0,0,1-17,0Zm14-4.36a10,10,0,0,0,3.87-3.87,11.09,11.09,0,0,0,1.41-5.57,11.08,11.08,0,0,0-1.41-5.56,10,10,0,0,0-3.87-3.87,11.76,11.76,0,0,0-11.09,0,10,10,0,0,0-3.87,3.87,11.08,11.08,0,0,0-1.41,5.56,11.09,11.09,0,0,0,1.41,5.57,10,10,0,0,0,3.87,3.87,11.76,11.76,0,0,0,11.09,0Z"/><path d="M63.53,74.72H61.21v-1.1h5.95v1.1H64.83v5.91h-1.3Z"/><path d="M73.4,79.54v1.09H68.14v-7h5.12v1.09H69.44v1.82h3.39v1.08H69.44v1.93Z"/><path d="M75.46,80.5a3.21,3.21,0,0,1-1.2-.61l.45-1a3.65,3.65,0,0,0,1.06.55,3.72,3.72,0,0,0,1.26.22,2.1,2.1,0,0,0,1.16-.25.76.76,0,0,0,.39-.66.63.63,0,0,0-.22-.5,1.41,1.41,0,0,0-.54-.3,8.63,8.63,0,0,0-.9-.25,10.06,10.06,0,0,1-1.3-.39,2,2,0,0,1-.85-.59,1.6,1.6,0,0,1-.36-1.1,1.89,1.89,0,0,1,.32-1.06,2.15,2.15,0,0,1,1-.75,3.79,3.79,0,0,1,1.56-.28,5,5,0,0,1,1.26.16,3.36,3.36,0,0,1,1.07.46l-.41,1a4,4,0,0,0-1-.41,3.79,3.79,0,0,0-1-.14,2.06,2.06,0,0,0-1.15.26.8.8,0,0,0-.38.69.63.63,0,0,0,.22.49,1.41,1.41,0,0,0,.54.3c.23.08.53.16.91.25a9.25,9.25,0,0,1,1.28.38,2.24,2.24,0,0,1,.86.6,1.58,1.58,0,0,1,.35,1.08,1.85,1.85,0,0,1-.31,1,2.19,2.19,0,0,1-1,.75,3.85,3.85,0,0,1-1.56.28A5.42,5.42,0,0,1,75.46,80.5Z"/><path d="M82.48,74.72H80.15v-1.1H86.1v1.1H83.78v5.91h-1.3Z"/><path d="M94.18,77.63H92.41v1.75H91.33V77.63H89.56v-1h1.77V74.87h1.08v1.75h1.77Z"/><path d="M105,80.63V76l-2.3,3.85h-.59L99.77,76v4.59H98.53v-7H99.6l2.79,4.65,2.73-4.65h1.07v7Z"/><path d="M113.36,79.54v1.09H108.1v-7h5.12v1.09H109.4v1.82h3.39v1.08H109.4v1.93Z"/><path d="M119.36,79h-3.51l-.69,1.62h-1.34l3.15-7h1.29l3.16,7h-1.36Zm-.43-1-1.33-3.07L116.29,78Z"/><path d="M122.92,80.5a3.38,3.38,0,0,1-1.2-.61l.45-1a3.65,3.65,0,0,0,1.06.55,3.72,3.72,0,0,0,1.26.22,2.1,2.1,0,0,0,1.16-.25.76.76,0,0,0,.39-.66.66.66,0,0,0-.21-.5,1.53,1.53,0,0,0-.55-.3,8.63,8.63,0,0,0-.9-.25,10.06,10.06,0,0,1-1.3-.39,2.08,2.08,0,0,1-.85-.59,1.6,1.6,0,0,1-.36-1.1,1.89,1.89,0,0,1,.32-1.06,2.21,2.21,0,0,1,1-.75,3.79,3.79,0,0,1,1.56-.28,4.84,4.84,0,0,1,1.26.16,3.36,3.36,0,0,1,1.07.46l-.41,1a4,4,0,0,0-1-.41,3.73,3.73,0,0,0-1-.14,2.06,2.06,0,0,0-1.15.26.79.79,0,0,0-.37.69.62.62,0,0,0,.21.49,1.45,1.45,0,0,0,.55.3,8.63,8.63,0,0,0,.9.25,9.25,9.25,0,0,1,1.28.38,2.24,2.24,0,0,1,.86.6,1.58,1.58,0,0,1,.35,1.08,1.85,1.85,0,0,1-.31,1,2.19,2.19,0,0,1-1,.75,3.85,3.85,0,0,1-1.56.28A5.47,5.47,0,0,1,122.92,80.5Z"/><path d="M129.37,79.91a3.16,3.16,0,0,1-.81-2.33v-4h1.3v3.91c0,1.37.59,2.06,1.78,2.06s1.78-.69,1.78-2.06V73.62h1.28v4a3.16,3.16,0,0,1-.81,2.33,3.52,3.52,0,0,1-4.52,0Z"/><path d="M141.11,80.63l-1.43-2h-1.86v2h-1.3v-7h2.89a3.87,3.87,0,0,1,1.58.3,2.29,2.29,0,0,1,1,.86,2.63,2.63,0,0,1,0,2.69,2.3,2.3,0,0,1-1.11.86l1.61,2.3Zm-.47-5.55a2,2,0,0,0-1.29-.36h-1.53v2.79h1.53a2,2,0,0,0,1.29-.36,1.28,1.28,0,0,0,.44-1A1.26,1.26,0,0,0,140.64,75.08Z"/><path d="M149.11,79.54v1.09h-5.26v-7H149v1.09h-3.82v1.82h3.38v1.08h-3.38v1.93Z"/><path d="M157,80.63V76l-2.3,3.85h-.59L151.8,76v4.59h-1.24v-7h1.07l2.79,4.65,2.73-4.65h1.07v7Z"/><path d="M165.39,79.54v1.09h-5.26v-7h5.12v1.09h-3.82v1.82h3.39v1.08h-3.39v1.93Z"/><path d="M173.07,73.62v7H172l-3.87-4.75v4.75h-1.29v-7h1.07l3.87,4.75V73.62Z"/><path d="M176.38,74.72h-2.33v-1.1h6v1.1h-2.33v5.91h-1.3Z"/></g></g></svg>